<svg xmlns="http://www.w3.org/2000/svg" style="display: none;">
  <symbol id="layout-dashboard" viewBox="0 0 24 24" fill="none" stroke="currentColor" stroke-width="2" stroke-linecap="round" stroke-linejoin="round">
    <rect x="3" y="3" width="7" height="9" rx="1"></rect>
    <rect x="14" y="3" width="7" height="5" rx="1"></rect>
    <rect x="14" y="12" width="7" height="9" rx="1"></rect>
    <rect x="3" y="16" width="7" height="5" rx="1"></rect>
  </symbol>
  <symbol id="users" viewBox="0 0 24 24" fill="none" stroke="currentColor" stroke-width="2" stroke-linecap="round" stroke-linejoin="round">
    <path d="M16 21v-2a4 4 0 0 0-4-4H6a4 4 0 0 0-4 4v2"></path>
    <circle cx="9" cy="7" r="4"></circle>
    <path d="M22 21v-2a4 4 0 0 0-3-3.87"></path>
    <path d="M16 3.13a4 4 0 0 1 0 7.75"></path>
  </symbol>
  <symbol id="megaphone" viewBox="0 0 24 24" fill="none" stroke="currentColor" stroke-width="2" stroke-linecap="round" stroke-linejoin="round">
    <path d="m3 11 18-5v12L3 14v-3z"></path>
    <path d="M11.6 16.8a3 3 0 1 1-5.8 1.6"></path>
  </symbol>
  <symbol id="store" viewBox="0 0 24 24" fill="none" stroke="currentColor" stroke-width="2" stroke-linecap="round" stroke-linejoin="round">
    <path d="M3 9 4.5 4.5A2 2 0 0 1 6.4 3h11.2a2 2 0 0 1 1.9 1.5L21 9"></path>
    <path d="M3 9h18v3a3 3 0 0 1-3 3 3 3 0 0 1-3-3 3 3 0 0 1-3 3 3 3 0 0 1-3-3 3 3 0 0 1-3 3 3 3 0 0 1-3-3V9z"></path>
    <path d="M5 15v6"></path>
    <path d="M19 15v6"></path>
    <path d="M5 21h14"></path>
    <path d="M9 21v-4a1 1 0 0 1 1-1h4a1 1 0 0 1 1 1v4"></path>
  </symbol>
  <symbol id="sliders-horizontal" viewBox="0 0 24 24" fill="none" stroke="currentColor" stroke-width="2" stroke-linecap="round" stroke-linejoin="round">
    <line x1="21" y1="4" x2="14" y2="4"></line>
    <line x1="10" y1="4" x2="3" y2="4"></line>
    <line x1="21" y1="12" x2="12" y2="12"></line>
    <line x1="8" y1="12" x2="3" y2="12"></line>
    <line x1="21" y1="20" x2="16" y2="20"></line>
    <line x1="12" y1="20" x2="3" y2="20"></line>
    <line x1="14" y1="2" x2="14" y2="6"></line>
    <line x1="8" y1="10" x2="8" y2="14"></line>
    <line x1="16" y1="18" x2="16" y2="22"></line>
  </symbol>
  <symbol id="user-cog" viewBox="0 0 24 24" fill="none" stroke="currentColor" stroke-width="2" stroke-linecap="round" stroke-linejoin="round">
    <circle cx="18" cy="15" r="3"></circle>
    <circle cx="9" cy="7" r="4"></circle>
    <path d="M3 21v-2a4 4 0 0 1 4-4h4"></path>
    <path d="m18 10 .4 1.2a1 1 0 0 0 .95.69H20.6a1 1 0 0 1 .59 1.8l-1 .73a1 1 0 0 0-.36 1.12l.38 1.18a1 1 0 0 1-1.54 1.12l-1-.72a1 1 0 0 0-1.18 0l-1 .72a1 1 0 0 1-1.54-1.12l.38-1.18a1 1 0 0 0-.36-1.12l-1-.73a1 1 0 0 1 .59-1.8h1.25a1 1 0 0 0 .95-.69L16 10a1 1 0 0 1 2 0z"></path>
  </symbol>
  <symbol id="bar-chart-3" viewBox="0 0 24 24" fill="none" stroke="currentColor" stroke-width="2" stroke-linecap="round" stroke-linejoin="round">
    <path d="M3 3v18h18"></path>
    <path d="M18 17V9"></path>
    <path d="M13 17V5"></path>
    <path d="M8 17v-3"></path>
  </symbol>
  <symbol id="user-circle" viewBox="0 0 24 24" fill="none" stroke="currentColor" stroke-width="2" stroke-linecap="round" stroke-linejoin="round">
    <circle cx="12" cy="12" r="10"></circle>
    <circle cx="12" cy="10" r="3"></circle>
    <path d="M6.17 18.5a6 6 0 0 1 11.66 0"></path>
  </symbol>
  <symbol id="home" viewBox="0 0 24 24" fill="none" stroke="currentColor" stroke-width="2" stroke-linecap="round" stroke-linejoin="round">
    <path d="M3 10.5 12 3l9 7.5"></path>
    <path d="M5 9.5V21h14V9.5"></path>
    <path d="M9 21v-6h6v6"></path>
  </symbol>
  <symbol id="sparkles" viewBox="0 0 24 24" fill="none" stroke="currentColor" stroke-width="2" stroke-linecap="round" stroke-linejoin="round">
    <path d="M12 3l1.9 5.1L19 10l-5.1 1.9L12 17l-1.9-5.1L5 10l5.1-1.9L12 3z"></path>
    <path d="M5 3v4"></path>
    <path d="M3 5h4"></path>
    <path d="M19 17v4"></path>
    <path d="M17 19h4"></path>
  </symbol>
  <symbol id="clipboard-check" viewBox="0 0 24 24" fill="none" stroke="currentColor" stroke-width="2" stroke-linecap="round" stroke-linejoin="round">
    <rect x="8" y="3" width="8" height="4" rx="1"></rect>
    <path d="M16 5h2a2 2 0 0 1 2 2v12a2 2 0 0 1-2 2H6a2 2 0 0 1-2-2V7a2 2 0 0 1 2-2h2"></path>
    <path d="m9 14 2 2 4-4"></path>
  </symbol>
</svg>
